<?xml version="1.0" encoding="UTF-8"?>
<svg xmlns="http://www.w3.org/2000/svg" viewBox="0 0 256 256">
  <rect width="256" height="256" rx="56" fill="#1E1B4B"/>
  <g transform="translate(28 28) scale(0.8)">
    <g transform="rotate(-45 100 100)">
      <circle cx="100" cy="166" r="7" fill="#F59E0B"/>
      <rect x="95" y="136" width="10" height="26" rx="2" fill="#F59E0B"/>
      <rect x="76" y="128" width="48" height="9" rx="3" fill="#F59E0B"/>
      <path d="M 90 130 L 110 130 L 106 46 L 100 32 L 94 46 Z" fill="#F4F1FF" stroke="#F4F1FF" stroke-width="2" stroke-linejoin="round"/>
    </g>
    <g transform="rotate(45 100 100)">
      <rect x="90" y="146" width="20" height="16" rx="4" fill="#F59E0B"/>
      <rect x="90" y="136" width="20" height="11" fill="#F4F1FF"/>
      <rect x="90" y="46" width="20" height="92" fill="#F59E0B"/>
      <path d="M 90 46 L 110 46 L 105 30 L 95 30 Z" fill="#FCD34D"/>
      <path d="M 95 30 L 105 30 L 100 18 Z" fill="#F4F1FF"/>
    </g>
    <g>
      <path d="M 34 120 Q 68 106 100 114 Q 132 106 166 120 L 166 156 Q 132 144 100 150 Q 68 144 34 156 Z" fill="#F59E0B"/>
      <path d="M 38 118 Q 68 106 98 114 L 98 148 Q 68 142 38 152 Z" fill="#FEF3C7"/>
      <path d="M 102 114 Q 132 106 162 118 L 162 152 Q 132 142 102 148 Z" fill="#FEF3C7"/>
      <line x1="100" y1="114" x2="100" y2="150" stroke="#F59E0B" stroke-width="3"/>
    </g>
    <circle cx="160" cy="46" r="9" fill="#10B981"/>
  </g>
</svg>
